<?xml version="1.0" standalone="no"?><!DOCTYPE svg PUBLIC "-//W3C//DTD SVG 1.1//EN" "http://www.w3.org/Graphics/SVG/1.1/DTD/svg11.dtd"><svg t="1599567547424" class="icon" viewBox="0 0 1024 1024" version="1.1" xmlns="http://www.w3.org/2000/svg" p-id="891" width="32" height="32" xmlns:xlink="http://www.w3.org/1999/xlink"><defs><style type="text/css"></style></defs><path d="M292.571429 365.714286v292.571428a280.454095 280.454095 0 0 0 194.681904 266.971429A292.449524 292.449524 0 0 1 219.428571 633.904762V390.095238A292.449524 292.449524 0 0 1 487.253333 98.742857 280.454095 280.454095 0 0 0 292.571429 365.714286z" fill="#1296db" opacity=".1" p-id="892"></path><path d="M512 999.619048a341.333333 341.333333 0 0 1-341.333333-341.333334V365.714286a341.333333 341.333333 0 0 1 682.666666 0v292.571428a341.333333 341.333333 0 0 1-341.333333 341.333334z m268.190476-633.904762a268.190476 268.190476 0 0 0-536.380952 0v292.571428a268.190476 268.190476 0 0 0 536.380952 0V365.714286z" fill="#1296db" p-id="893"></path><path d="M512 560.761905a97.52381 97.52381 0 0 1-97.52381-97.52381V341.333333a97.52381 97.52381 0 0 1 195.04762 0v121.904762a97.52381 97.52381 0 0 1-97.52381 97.52381z m24.380952-219.428572a24.380952 24.380952 0 0 0-48.761904 0v121.904762a24.380952 24.380952 0 0 0 48.761904 0V341.333333z" fill="#1296db" p-id="894"></path></svg>